<svg width="65" height="59" viewBox="0 0 65 59" fill="none" xmlns="http://www.w3.org/2000/svg">
<path d="M56.6981 18.6052H39.3239L39.8704 10.306C40.0438 7.67103 39.1082 5.05429 37.3032 3.12671C32.6061 -1.88974 24.2696 -0.472342 21.5192 5.85725L15.9792 18.6052H2.03667C0.911793 18.6052 0 19.5171 0 20.6418V56.8669C0 57.9917 0.911793 58.9036 2.03667 58.9036H17.3148C18.3671 58.9036 19.2327 58.1055 19.34 57.0817H35.5893C47.2633 57.0817 57.6532 49.6632 61.4433 38.6218L64.543 29.5926C66.391 24.2094 62.4058 18.6052 56.6981 18.6052ZM4.07334 22.6785H15.2781V54.8303H4.07334V22.6785ZM60.6904 28.27L57.5907 37.2994C54.3653 46.6954 45.5236 53.0083 35.5892 53.0083H19.3514V21.0652L25.255 7.4806C26.1296 5.46761 28.1131 4.16694 30.308 4.16694C33.4774 4.16694 36.0163 6.83816 35.8056 10.0384L35.1163 20.508C35.0393 21.6813 35.9703 22.6785 37.1486 22.6785H56.698C59.5947 22.6785 61.6331 25.5235 60.6904 28.27Z" fill="white"/>
</svg>
