<svg width="57" height="57" fill="none" xmlns="http://www.w3.org/2000/svg"><path d="M39.749 23.25a4.5 4.5 0 104.5 4.5 4.5 4.5 0 00-4.5-4.5zm0 6.75c-1.24 0-2.25-1.01-2.25-2.25s1.01-2.25 2.25-2.25 2.25 1.01 2.25 2.25S40.99 30 39.75 30z" fill="#fff"/><path d="M28.5 0c-4.296 0-8.361.964-12.014 2.667A9.806 9.806 0 009.75 0C4.374 0 0 4.29 0 9.563c0 1.982 1.214 4.482 2.713 6.817A28.37 28.37 0 000 28.5C0 44.24 12.758 57 28.5 57S57 44.24 57 28.5 44.242 0 28.5 0zM2.25 9.563c0-4.04 3.36-7.313 7.5-7.313 4.142 0 7.5 3.272 7.5 7.313 0 4.037-7.5 12.187-7.5 12.187s-7.5-8.15-7.5-12.187zm0 18.937c0-3.517.701-6.873 1.963-9.941a58.484 58.484 0 003.882 4.714l1.655 1.8 1.655-1.8c1.352-1.468 8.095-9.032 8.095-13.71a9.363 9.363 0 00-1.517-5.102 26.07 26.07 0 015.71-1.763l-.609 1.096c-.295.534-.404 1.107-.407 1.673.006.711.172 1.43.615 2.06h-.002l1.711 2.402c.094.128.219.39.3.684.085.292.132.618.131.873.001.115-.01.216-.022.288v-.002l-.444 2.42c-.024.16-.165.477-.373.74-.202.267-.474.482-.624.546l-3.008 1.388a2.635 2.635 0 00-1.285 3.486l1.27 2.764c.066.141.142.387.192.66.05.273.079.576.079.848 0 .24-.024.46-.056.6l-.015.06-.346 1.502c-.036.18-.198.52-.422.807-.219.291-.506.535-.67.617l-2.222 1.18c-.114.064-.373.132-.646.13-.331.004-.675-.1-.803-.19l-1.818-1.171c-.604-.382-1.272-.524-1.935-.529-.61.004-1.23.126-1.799.46l-1.82 1.077a2.43 2.43 0 00-.853.833 2.208 2.208 0 00-.317 1.136 2.344 2.344 0 00.678 1.625l-.001-.001 1.019 1.063c.092.093.229.309.32.561a2.3 2.3 0 01.141.754c0 .09-.008.17-.02.231l-.203.974c-.045.23-.206.635-.419.999-.208.366-.478.708-.655.862l-.921.827a23.749 23.749 0 00-1.972 2.046A26.14 26.14 0 012.25 28.5zm18.86 20.752l-1.178 4.054A26.37 26.37 0 016.704 43.111c.102-.126.21-.263.327-.405a21.583 21.583 0 011.909-2.002l.921-.827c.437-.396.795-.885 1.102-1.413.303-.531.547-1.086.672-1.662l.204-.984c.046-.226.067-.453.067-.681a4.5 4.5 0 00-.28-1.527c-.18-.487-.43-.948-.807-1.344L9.799 31.2l-.002-.001-.04-.054.054-.044 1.822-1.078h.003c.108-.07.373-.148.65-.145.3-.004.6.088.718.171l1.816 1.17c.629.397 1.327.543 2.021.548.576-.003 1.156-.106 1.701-.391l2.223-1.18c.565-.305 1.016-.74 1.4-1.234.378-.498.682-1.047.83-1.672l.363-1.578c.078-.355.109-.717.11-1.09a6.992 6.992 0 00-.117-1.257 5.095 5.095 0 00-.36-1.189l-1.27-2.767-.002-.003-.033-.15c0-.145.085-.289.219-.347l3.009-1.389c.598-.282 1.069-.714 1.457-1.21.384-.5.685-1.063.809-1.713l.444-2.419v-.002c.042-.23.059-.46.06-.69a5.51 5.51 0 00-.219-1.492 4.525 4.525 0 00-.631-1.369l-1.71-2.402v-.002c-.095-.118-.203-.44-.197-.752-.003-.246.061-.475.123-.579l1.42-2.551c.671-.054 1.346-.09 2.03-.09 13.05 0 23.9 9.571 25.912 22.062l-1.005-.56a5.13 5.13 0 00-1.335-.487 6.55 6.55 0 00-1.428-.167c-.258 0-.513.017-.768.062l-.208.037c-1.898-3.536-5.63-5.947-9.917-5.947-6.204 0-11.25 5.047-11.25 11.25 0 3.79 3.722 9.271 6.59 12.932l-1.716 1.93c-.103.122-.365.312-.664.437-.296.13-.63.2-.83.197l-.07-.002-3.28-.253-.083-.018-.004-.001v-.012l.01-.067.004-.008.585-1.95c.082-.276.118-.554.118-.823a3.3 3.3 0 00-.374-1.506 3.028 3.028 0 00-1.066-1.18l-1.315-.822a2.717 2.717 0 00-1.445-.409 2.776 2.776 0 00-2.224 1.094l-3.988 5.317a2.629 2.629 0 00.525 3.675l1.459 1.093a.98.98 0 01.276.371c.082.176.128.387.127.549a.786.786 0 01-.026.209zm27.64-20.751c0 4.969-9 14.999-9 14.999s-9-10.03-9-15c0-4.972 4.03-9 9-9s9 4.028 9 9zM28.5 54.75a26.18 26.18 0 01-6.412-.796l1.183-4.076c.08-.28.115-.56.115-.834a3.577 3.577 0 00-.334-1.491 3.204 3.204 0 00-.97-1.23l-1.458-1.093a.372.372 0 01-.148-.303.36.36 0 01.073-.221l3.989-5.318c.073-.105.247-.195.423-.192.1 0 .187.026.252.066l1.315.822a.8.8 0 01.262.308c.078.149.122.33.12.47 0 .074-.01.134-.023.177l-.582 1.944a2.47 2.47 0 00-.11.727c-.003.58.22 1.152.62 1.566a2.38 2.38 0 001.544.71l3.28.252c.082.006.163.009.244.009a4.436 4.436 0 001.72-.381c.54-.236 1.043-.551 1.454-1.007l1.469-1.653a65.41 65.41 0 001.55 1.797l1.674 1.866 1.674-1.867C43.024 43.22 51 34.05 51 28.5a11.2 11.2 0 00-.456-3.148c.033 0 .063-.004.1-.004.278 0 .618.04.928.11.309.069.59.175.742.26l2.394 1.33c.027.482.043.965.043 1.452C54.75 42.974 42.974 54.75 28.5 54.75z" fill="#fff"/><path d="M10.48 28.098l.014-.008.003-.002-.018.01zM9.94 5.249a3.748 3.748 0 00-3.75 3.75 3.75 3.75 0 103.75-3.75zm0 5.25a1.5 1.5 0 11.002-3 1.5 1.5 0 01-.002 3z" fill="#fff"/></svg>