<svg width="52" height="54" fill="none" xmlns="http://www.w3.org/2000/svg"><path d="M48.138 14.017a3.487 3.487 0 00-.422-3.57 26.63 26.63 0 00-9.217-7.609C34.859 1.02 30.714 0 26.313 0h-.008l-.043.001h-.002C17.457.015 9.593 4.078 4.55 10.394a3.513 3.513 0 00-.772 2.198 3.49 3.49 0 00.293 1.394A25.346 25.346 0 000 27.772v10.011c0 .535.431.969.963.969a.966.966 0 00.963-.969v-10.01c.001-4.477 1.272-8.653 3.46-12.234a3.613 3.613 0 001.988.607 3.614 3.614 0 002.827-1.351c3.75-4.684 9.551-7.69 16.104-7.69 3.284.002 6.292.75 8.945 2.073a19.407 19.407 0 016.73 5.56 3.608 3.608 0 002.87 1.407c.673 0 1.352-.198 1.954-.584a24.212 24.212 0 013.27 12.212v14.766c-.002 1.773-.724 2.968-1.909 4.091-1.186 1.12-2.834 2.151-4.68 2.151H32.096c-.013-1.41-1.16-2.56-2.565-2.56h-6.42a2.583 2.583 0 00-2.568 2.582V50.7c0 1.421 1.156 2.584 2.568 2.584h6.42c1.406 0 2.556-1.153 2.566-2.566h11.388c2.324 0 4.451-.871 6-2.335A7.98 7.98 0 0052 42.54V27.772c.001-5.051-1.406-9.768-3.862-13.755zm-2.275-.141a1.694 1.694 0 01-1.014.332 1.685 1.685 0 01-1.344-.654 21.357 21.357 0 00-7.4-6.112c-2.913-1.455-6.224-2.275-9.801-2.275-7.146 0-13.501 3.283-17.604 8.413a1.69 1.69 0 01-1.326.628c-.368 0-.73-.114-1.039-.35a1.586 1.586 0 01-.631-1.266c0-.344.11-.685.348-.984 4.694-5.879 12.026-9.67 20.253-9.67h.009c4.105 0 7.953.95 11.33 2.636a24.683 24.683 0 018.548 7.057v.001c.224.294.327.625.328.959 0 .485-.22.96-.657 1.285zM30.173 50.7c0 .35-.294.645-.642.645h-6.42a.653.653 0 01-.642-.645v-1.898c0-.35.295-.646.642-.646h6.42c.348 0 .642.296.642.647V50.7z" fill="#fff"/><path d="M11.555 21.81H6.42c-1.411 0-2.567 1.163-2.567 2.584v16.672c0 1.421 1.156 2.583 2.567 2.583h5.136c1.413 0 2.568-1.163 2.568-2.583V24.394a2.582 2.582 0 00-2.568-2.583zm.642 19.256c0 .35-.293.646-.642.646H6.42a.653.653 0 01-.641-.646V24.394c0-.35.294-.646.641-.646h5.136c.349 0 .642.296.642.646v16.672zm33.38-19.242H40.44c-1.412 0-2.568 1.163-2.568 2.583V41.08c0 1.42 1.156 2.583 2.568 2.583h5.136c1.413 0 2.568-1.163 2.568-2.583V24.407a2.582 2.582 0 00-2.568-2.583zm.642 19.256c0 .35-.294.645-.642.645H40.44a.654.654 0 01-.642-.646V24.407c0-.35.295-.646.642-.646h5.136c.349 0 .642.296.642.646V41.08z" fill="#fff"/></svg>