<svg width="63" height="42" fill="none" xmlns="http://www.w3.org/2000/svg"><path d="M59.769 0H3.231A3.24 3.24 0 000 3.23v35.54A3.24 3.24 0 003.23 42h56.54A3.24 3.24 0 0063 38.77V3.23A3.24 3.24 0 0059.769 0zm-1.212 2.423l-25.199 18.9c-.453.345-1.148.56-1.858.557-.71.004-1.405-.212-1.859-.557L4.443 2.423h54.114zM45.097 22.57l13.73 16.962c.014.017.031.03.046.045H4.127c.015-.016.032-.028.046-.045l13.73-16.962a1.211 1.211 0 00-1.883-1.525L2.423 37.841V3.937l25.765 19.324c.969.722 2.147 1.04 3.312 1.042 1.163-.002 2.342-.32 3.311-1.042L60.576 3.937v33.904L46.98 21.045a1.211 1.211 0 10-1.883 1.525z" fill="#fff"/></svg>