<svg width="57" height="57" viewBox="0 0 57 57" fill="none" xmlns="http://www.w3.org/2000/svg">
<path d="M39.749 23.2499C37.2627 23.2499 35.249 25.2644 35.249 27.7499C35.249 30.2354 37.2628 32.2499 39.749 32.2499C42.2345 32.2499 44.249 30.2354 44.249 27.7499C44.249 25.2644 42.2345 23.2499 39.749 23.2499ZM39.749 29.9999C38.5085 29.9999 37.499 28.9904 37.499 27.7499C37.499 26.5093 38.5085 25.4998 39.749 25.4998C40.9896 25.4998 41.9991 26.5093 41.9991 27.7499C41.9991 28.9904 40.9896 29.9999 39.749 29.9999Z" fill="white"/>
<path d="M28.4999 0C24.2039 0 20.139 0.963656 16.4864 2.66698C14.7344 1.01921 12.363 0 9.75002 0C4.37387 0 0 4.29003 0 9.56253C0 11.5455 1.21426 14.0446 2.71274 16.38C0.980246 20.0594 0 24.1634 0 28.4999C0 44.2395 12.7582 57 28.4999 57C44.2416 57 56.9999 44.2395 56.9999 28.5001C56.9999 12.7608 44.2418 0 28.4999 0ZM2.25006 9.56253C2.25006 5.52221 5.60928 2.25005 9.75002 2.25005C13.8915 2.25005 17.25 5.52232 17.25 9.56253C17.25 13.6005 9.75002 21.7501 9.75002 21.7501C9.75002 21.7501 2.25006 13.6005 2.25006 9.56253ZM2.24983 28.4996C2.24994 24.9825 2.9512 21.627 4.21266 18.5587C5.86043 20.7998 7.49985 22.6274 8.09468 23.2733L9.74991 25.0725L11.4051 23.2733C12.7573 21.8047 19.4998 14.241 19.4998 9.56253C19.4998 7.68609 18.9382 5.93924 17.9826 4.46103C19.7902 3.6667 21.7026 3.06909 23.6939 2.6977L23.084 3.79417C22.7893 4.3281 22.6797 4.90111 22.6768 5.46666C22.6829 6.17838 22.8492 6.89611 23.2918 7.52767L23.2903 7.52623L25.001 9.92924C25.0947 10.0567 25.22 10.3199 25.3018 10.6125C25.3857 10.9049 25.4331 11.2312 25.4323 11.4855C25.4331 11.6009 25.4226 11.7023 25.4098 11.7743L25.4106 11.7719L24.9665 14.1914C24.9425 14.3528 24.8015 14.6692 24.5931 14.9317C24.3906 15.1986 24.1192 15.4138 23.9691 15.4776L20.9609 16.8659C19.9987 17.3135 19.4354 18.2646 19.4354 19.2569C19.4354 19.6206 19.5126 19.9971 19.6761 20.3519L20.9459 23.1163C21.0119 23.2572 21.0876 23.5025 21.1379 23.7756C21.1889 24.0487 21.2166 24.3516 21.2166 24.6238C21.2166 24.8645 21.1933 25.0842 21.1611 25.2237L21.1461 25.2845L20.8004 26.7861C20.7636 26.9668 20.6015 27.3066 20.3781 27.5931C20.1591 27.8841 19.8725 28.1278 19.7083 28.2103L17.486 29.3894C17.372 29.454 17.1133 29.5221 16.8395 29.5192C16.5088 29.5244 16.1653 29.4201 16.037 29.3295L14.219 28.1588C13.6152 27.777 12.9469 27.6345 12.284 27.6301C11.6739 27.6339 11.0548 27.756 10.4851 28.0891L8.66446 29.1666C8.31422 29.3728 8.01864 29.6578 7.81246 29.9999C7.60695 30.3411 7.4944 30.7379 7.49518 31.1361C7.49217 31.7346 7.74722 32.3235 8.17317 32.7614L8.17172 32.76L9.19093 33.8234C9.28322 33.9163 9.4196 34.1315 9.51044 34.3844C9.60273 34.6355 9.65372 34.9229 9.65216 35.1381C9.65294 35.2288 9.64392 35.3083 9.6319 35.3691L9.42862 36.3426C9.38364 36.573 9.2231 36.9779 9.01013 37.3417C8.80228 37.7077 8.53153 38.0497 8.35541 38.2041L7.43361 39.0306C6.82019 39.5835 6.02731 40.4107 5.46188 41.0773C3.41756 37.339 2.24983 33.0535 2.24983 28.4996ZM21.1095 49.2525L19.9321 53.3062C14.4945 51.423 9.8609 47.8057 6.70352 43.1107C6.8055 42.9847 6.91493 42.8482 7.03127 42.7057C7.47536 42.1545 8.39104 41.1937 8.94 40.7039L9.86102 39.8774C10.2983 39.4814 10.656 38.9923 10.9635 38.4638C11.2664 37.9328 11.5102 37.3779 11.6348 36.8017L11.8395 35.8177C11.8852 35.5919 11.9056 35.3647 11.9056 35.1367C11.9048 34.6125 11.8029 34.0979 11.6258 33.6097C11.4458 33.123 11.1954 32.6618 10.8188 32.2657L9.79956 31.2014L9.79722 31.1999L9.75748 31.1459L9.81147 31.1017L11.6333 30.024L11.6356 30.0232C11.7444 29.9534 12.009 29.8761 12.2859 29.8791C12.5859 29.8753 12.8851 29.9669 13.0036 30.0501L14.8201 31.2202C15.4487 31.617 16.1469 31.7631 16.8413 31.7684C17.4173 31.7654 17.997 31.6619 18.5423 31.3768L20.7646 30.1978C21.3301 29.8925 21.7809 29.4568 22.1648 28.9633C22.5429 28.4646 22.8472 27.9155 22.9951 27.2909L23.3581 25.7129C23.4362 25.3582 23.4669 24.9959 23.4677 24.6239C23.4669 24.2054 23.4271 23.7795 23.3507 23.3661C23.2734 22.9521 23.1632 22.5539 22.9914 22.1773L21.7201 19.4098L21.7187 19.4068L21.6865 19.2577C21.6865 19.1121 21.7712 18.9682 21.9047 18.9096L24.9138 17.5214C25.5123 17.2393 25.9825 16.8074 26.371 16.3116C26.755 15.8114 27.0558 15.2482 27.1795 14.5978L27.6236 12.179L27.6243 12.1766C27.6664 11.9463 27.6828 11.7162 27.6837 11.4866C27.6822 10.9849 27.6042 10.4801 27.4655 9.99493C27.3245 9.50965 27.1301 9.04541 26.8339 8.62615L25.1239 6.22391L25.1231 6.22246C25.0293 6.10401 24.9214 5.78149 24.9266 5.46955C24.9243 5.22363 24.9881 4.99474 25.0496 4.89131L26.4694 2.33978C27.1414 2.28579 27.8164 2.24972 28.5005 2.24972C41.5491 2.24972 52.4008 11.8212 54.4123 24.3116L53.4073 23.7529C52.991 23.5233 52.5418 23.3733 52.0715 23.2646C51.6012 23.1581 51.1175 23.0988 50.6435 23.0981C50.3855 23.0981 50.1312 23.1154 49.8762 23.1604L49.6683 23.1971C47.7696 19.661 44.0377 17.2497 39.7507 17.2497C33.5474 17.2497 28.5007 22.2965 28.5007 28.4997C28.5007 32.2909 32.223 37.7711 35.0917 41.4319L33.3749 43.3624C33.2722 43.484 33.0104 43.6744 32.7111 43.7989C32.4149 43.9294 32.0811 43.9992 31.8816 43.9962L31.8104 43.9939L28.5305 43.7412L28.4481 43.7231L28.4443 43.7217V43.7104L28.4547 43.643L28.4577 43.6347L29.0428 41.6855C29.1253 41.4087 29.1606 41.1312 29.1606 40.8619C29.1591 40.3279 29.0248 39.8172 28.7872 39.3558C28.5486 38.8968 28.1998 38.4783 27.7214 38.1761L26.406 37.3541C25.9552 37.0729 25.4511 36.9446 24.9607 36.9454C24.1252 36.9468 23.2889 37.3098 22.7369 38.0388L18.7492 43.3556C18.3967 43.8243 18.2257 44.3824 18.2257 44.9269C18.2249 45.7196 18.5865 46.5139 19.2742 47.0306L20.7329 48.124C20.813 48.1818 20.9294 48.3175 21.0089 48.4953C21.0914 48.6708 21.1371 48.8815 21.1357 49.0435C21.1358 49.1294 21.1238 49.2016 21.1095 49.2525ZM48.7501 28.5008C48.7501 33.4696 39.7501 43.5 39.7501 43.5C39.7501 43.5 30.7501 33.4695 30.7501 28.5008C30.7501 23.5283 34.7791 19.5007 39.7501 19.5007C44.7204 19.5007 48.7501 23.5282 48.7501 28.5008ZM28.4999 54.7499C26.289 54.7499 24.141 54.4716 22.0882 53.9542L23.271 49.8779C23.3511 49.5981 23.3856 49.3184 23.3856 49.0438C23.3842 48.521 23.2657 48.0178 23.0517 47.5528C22.8365 47.09 22.5261 46.6587 22.082 46.3236L20.6239 45.2302C20.5279 45.1589 20.4768 45.0486 20.4762 44.9272C20.4769 44.8454 20.4987 44.7728 20.549 44.7059L24.5375 39.3884C24.611 39.2827 24.7851 39.1934 24.9606 39.1957C25.0618 39.1957 25.1481 39.222 25.2133 39.2624L26.5281 40.0844C26.6053 40.1309 26.7126 40.2411 26.7898 40.3918C26.8679 40.541 26.9121 40.7226 26.9106 40.8621C26.9106 40.9356 26.9001 40.9957 26.8873 41.039L26.3046 42.983C26.2296 43.226 26.1944 43.4721 26.1944 43.7104C26.1921 44.2893 26.4149 44.8625 26.8146 45.2757C27.2122 45.6935 27.7716 45.9423 28.3589 45.9852L31.6387 46.2379C31.7205 46.244 31.8015 46.2469 31.8825 46.2469C32.4855 46.2439 33.0608 46.097 33.6031 45.866C34.1432 45.6305 34.6464 45.3148 35.0574 44.8588L36.5259 43.2058C37.2122 44.0294 37.7657 44.657 38.0762 45.0027L39.7502 46.8687L41.4243 45.0019C43.024 43.2199 51.0003 34.0497 51.0003 28.5004C51.0003 27.407 50.836 26.3524 50.5436 25.352C50.5773 25.3512 50.6074 25.3482 50.6434 25.3482C50.9217 25.3474 51.262 25.3872 51.5719 25.4577C51.881 25.5268 52.1629 25.6325 52.3145 25.7188L54.7078 27.0485C54.7348 27.53 54.7506 28.0131 54.7506 28.4998C54.75 42.9741 42.9742 54.7499 28.4999 54.7499Z" fill="white"/>
<path d="M10.4795 28.098L10.4945 28.0899L10.4972 28.0885L10.4795 28.098Z" fill="white"/>
<path d="M9.93962 5.24884C7.86736 5.24884 6.19043 6.92655 6.19043 8.99881C6.19043 11.0703 7.86748 12.7488 9.93973 12.7488C12.012 12.7488 13.6904 11.0703 13.6904 8.99881C13.6905 6.92733 12.0119 5.24884 9.93962 5.24884ZM9.93973 10.4987C9.11246 10.4995 8.44048 9.82598 8.44048 8.99881C8.44048 8.17165 9.11246 7.49889 9.93973 7.49889C10.7678 7.49889 11.4404 8.17165 11.4404 8.99881C11.4405 9.82598 10.7678 10.4987 9.93973 10.4987Z" fill="white"/>
</svg>
