<svg width="52" height="54" viewBox="0 0 52 54" fill="none" xmlns="http://www.w3.org/2000/svg">
<path d="M48.1376 14.0168C48.3385 13.5661 48.4469 13.0802 48.4457 12.5911C48.4469 11.8439 48.205 11.0837 47.7158 10.4476C45.2807 7.27499 42.1422 4.65951 38.4989 2.83819C34.8597 1.01947 30.7145 0 26.3131 0H26.3054H26.3041C26.2906 0 26.2753 0.00124884 26.2618 0.00124884H26.2605C17.4572 0.0147779 9.59169 4.07849 4.55024 10.3942C4.03343 11.04 3.77669 11.8226 3.77794 12.5922C3.77669 13.0692 3.8793 13.543 4.07131 13.9859C1.49829 17.9752 0 22.7021 0 27.7724V37.7832C0 38.3181 0.431473 38.752 0.962957 38.752C1.49444 38.752 1.92591 38.3181 1.92591 37.7832V27.7724C1.92716 23.2959 3.19827 19.1199 5.38675 15.539C5.99462 15.9401 6.68804 16.1468 7.37428 16.1463C8.4309 16.1476 9.48824 15.6854 10.2015 14.795C13.9507 10.1106 19.7522 7.10546 26.3048 7.10473C29.5885 7.10671 32.5968 7.85456 35.2501 9.17832C37.9021 10.5027 40.1913 12.4068 41.9806 14.7385C42.69 15.6635 43.7697 16.1457 44.8496 16.145C45.523 16.1457 46.2022 15.9466 46.8044 15.5608C48.8806 19.134 50.074 23.2999 50.074 27.7725V39.615V42.5392C50.0715 44.3117 49.3505 45.5071 48.1654 46.6305C46.979 47.7507 45.3305 48.781 43.4848 48.781H32.0961C32.0833 47.3706 30.9362 46.2202 29.5307 46.2202H23.1111C21.6994 46.2202 20.5432 47.3828 20.5432 48.8034V50.7004C20.5432 52.121 21.6994 53.2836 23.1111 53.2836H29.5308C30.9373 53.2836 32.0872 52.1306 32.0975 50.7182H43.4848C45.8094 50.7182 47.9362 49.847 49.4847 48.3833C51.0331 46.924 52.0026 44.855 52 42.5387V39.6144V27.7724C52.001 22.7207 50.5945 18.0042 48.1376 14.0168ZM45.8631 13.8756C45.5582 14.1003 45.2064 14.2075 44.8488 14.2075C44.3295 14.2068 43.8294 13.9783 43.5045 13.554C41.5394 10.9944 39.0209 8.89775 36.1057 7.44192C33.1918 5.98713 29.8805 5.16737 26.304 5.16675C19.1583 5.16675 12.8028 8.44984 8.69992 13.5797C8.37251 13.9894 7.88141 14.2076 7.37355 14.2082C7.00639 14.2075 6.6436 14.094 6.33545 13.8571C5.91303 13.5316 5.705 13.0663 5.70375 12.5918C5.70375 12.2478 5.81417 11.9068 6.05238 11.6077C10.7458 5.72904 18.0778 1.93757 26.3047 1.93757H26.3124H26.3136C30.4191 1.93757 34.2669 2.8871 37.6432 4.57407C41.0225 6.2625 43.9325 8.68784 46.1917 11.6312V11.632C46.4163 11.926 46.5191 12.2566 46.5203 12.5905C46.5193 13.0764 46.3009 13.5513 45.8631 13.8756ZM30.1726 50.7005C30.1726 51.0511 29.8792 51.3463 29.5307 51.3463H23.111C22.7637 51.3463 22.4691 51.051 22.4691 50.7005V48.8035C22.4691 48.4529 22.7637 48.157 23.111 48.157H29.5307C29.8794 48.157 30.1726 48.453 30.1726 48.8035V50.7005Z" fill="white"/>
<path d="M11.5553 21.8107H6.41949C5.00778 21.8107 3.85156 22.9733 3.85156 24.3939V41.066C3.85156 42.4872 5.00778 43.6492 6.41949 43.6492H11.5553C12.9683 43.6492 14.1233 42.4865 14.1233 41.066V24.3939C14.1233 22.9726 12.9683 21.8107 11.5553 21.8107ZM12.1972 41.066C12.1972 41.4166 11.9039 41.7124 11.5553 41.7124H6.41949C6.0722 41.7124 5.77758 41.4165 5.77758 41.066V24.3939C5.77758 24.044 6.0722 23.748 6.41949 23.748H11.5553C11.904 23.748 12.1972 24.044 12.1972 24.3939V41.066Z" fill="white"/>
<path d="M45.5768 21.8243H40.441C39.0293 21.8243 37.873 22.987 37.873 24.407V41.0796C37.873 42.5003 39.0293 43.6628 40.441 43.6628H45.5768V43.663C46.9898 43.663 48.1448 42.4998 48.1448 41.0797V24.407C48.1448 22.9863 46.9899 21.8243 45.5768 21.8243ZM46.2188 41.0796C46.2188 41.4295 45.9255 41.7255 45.5769 41.7255H40.4411C40.0937 41.7248 39.7992 41.4289 39.7992 41.079V24.407C39.7992 24.0572 40.0938 23.7612 40.4411 23.7612H45.5769C45.9256 23.7612 46.2188 24.0572 46.2188 24.407V41.0796Z" fill="white"/>
</svg>
