<svg width="63" height="42" viewBox="0 0 63 42" fill="none" xmlns="http://www.w3.org/2000/svg">
<path d="M59.769 0H3.23083C1.45379 0 0 1.4538 0 3.23071V38.7692C0 40.546 1.45379 42 3.23083 42H59.7691C61.5459 42 63 40.5462 63 38.7692V3.23071C62.9998 1.4538 61.546 0 59.769 0ZM58.5566 2.42291L33.3584 21.3231C32.9054 21.6679 32.2099 21.8836 31.4998 21.8804C30.7898 21.8836 30.0945 21.6679 29.6413 21.3231L4.44309 2.42291H58.5566ZM45.0966 22.5702L58.8273 39.5318C58.8411 39.5488 58.858 39.5617 58.8726 39.5771H4.12723C4.14175 39.561 4.15873 39.5488 4.17251 39.5318L17.9033 22.5702C18.324 22.0501 18.2442 21.2876 17.7231 20.8659C17.203 20.4452 16.4405 20.5249 16.0197 21.0452L2.42303 37.8411V3.93737L28.1882 23.2614C29.1567 23.9827 30.335 24.3001 31.4997 24.3033C32.6627 24.3009 33.842 23.9834 34.8111 23.2614L60.5763 3.93737V37.8409L46.98 21.0452C46.5592 20.525 45.796 20.4451 45.2766 20.8659C44.7556 21.2866 44.6756 22.0501 45.0966 22.5702Z" fill="white"/>
</svg>
