<svg width="40" height="29" viewBox="0 0 40 29" fill="none" xmlns="http://www.w3.org/2000/svg">
<path d="M22.0338 20.4121C22.0239 20.3923 22.014 20.3725 22.0041 20.3625C21.9942 20.3526 21.9843 20.3526 21.9743 20.3427C21.9644 20.3328 21.9446 20.3229 21.9248 20.313C21.6372 20.1642 20.8341 19.7775 19.8822 19.5891C19.8624 19.5891 19.8425 19.5891 19.8326 19.5891C19.793 19.5991 19.7533 19.6387 19.7434 19.6784C19.6442 20.1543 19.5847 20.6005 19.555 21.0269C19.555 21.0269 19.555 21.0368 19.555 21.0467C19.8425 21.1459 20.1202 21.2549 20.378 21.3739C20.487 21.4235 20.4672 21.5821 20.3482 21.602C20.0607 21.6416 19.793 21.6912 19.5352 21.7408C19.5352 22.3754 19.6046 22.9405 19.7136 23.4462C19.7335 23.5156 19.7434 23.585 19.7632 23.6544C19.783 23.7338 19.8029 23.8131 19.8326 23.8825C19.8822 24.0312 19.9318 24.18 19.9813 24.3188C20.14 24.7253 20.3383 25.0823 20.5465 25.3797C20.5763 25.4194 20.6258 25.4392 20.6754 25.4293C20.7052 25.4194 20.725 25.4095 20.7448 25.3896C21.3199 24.5964 22.0933 22.9802 22.0537 20.4518C22.0338 20.4319 22.0338 20.422 22.0338 20.4121Z" fill="black"/>
<path d="M38.9093 12.3409C38.1557 14.4132 37.2038 15.1866 37.2038 15.1866C37.2038 15.1866 35.8058 15.9699 34.3978 15.9005C34.3978 18.0918 33.4558 20.7789 31.3042 22.6231C30.9076 22.1472 30.4614 21.6118 29.9954 21.0664C31.4232 17.5564 34.2887 13.8381 36.599 12.6185C35.5678 10.9032 35.6273 8.62265 35.6273 8.62265C35.6273 8.62265 35.9743 6.90729 38.0962 4.56727C34.2491 5.14236 32.5833 7.42289 32.5833 7.42289C32.5833 7.42289 32.2362 9.07875 32.5833 11.2502C29.7078 12.1624 29.1922 13.9869 29.1922 13.9869C29.1922 13.9869 28.3494 16.2178 28.5477 19.4304C27.7545 18.5678 26.9811 17.7646 26.3465 17.2292C27.11 16.436 27.4174 15.9204 27.4174 15.9204C27.4174 15.9204 27.9429 14.7008 26.7828 12.9457C27.933 11.9145 28.4783 10.8635 28.4783 10.8635C28.4783 10.8635 28.5775 8.89036 26.7431 6.89738C26.8621 9.09859 26.2969 10.1794 26.2969 10.1794C26.2969 10.1794 25.3153 11.4485 23.9966 11.9245C24.4824 13.0647 24.76 14.4727 24.6807 15.9402C23.7189 15.2759 22.7274 14.7305 21.716 14.2744C22.0829 11.9046 23.0943 9.78274 24.3535 8.21612C22.7175 7.05602 21.8648 4.93413 21.8648 4.93413C21.8648 4.93413 21.4979 3.22869 22.5093 0.234253C19.2074 2.27682 18.5927 5.03329 18.5927 5.03329C18.5927 5.03329 18.9397 6.68915 20.1197 8.54333C17.849 10.5165 18.1068 12.4004 18.1068 12.4004C18.1068 12.4004 18.1763 12.6483 18.3547 13.1143C17.4822 12.8962 16.6096 12.7574 15.7569 12.6681C15.7172 12.6384 15.6776 12.6185 15.6379 12.5888C16.2923 11.2006 16.3816 10.0207 16.3816 10.0207C16.3816 10.0207 15.7073 8.16654 13.2285 7.03619C14.2002 9.01926 14.101 10.2389 14.101 10.2389C14.101 10.2389 13.7243 11.6766 12.7724 12.6384C12.1576 12.6879 11.5528 12.7673 10.9876 12.8863C10.9182 11.5973 11.0372 10.3578 11.3148 9.25723C9.34167 8.89036 7.66597 7.32374 7.66597 7.32374C7.66597 7.32374 6.60503 5.92567 6.25799 2.79242C4.12619 6.03474 4.74094 8.79121 4.74094 8.79121C4.74094 8.79121 5.75231 10.1496 7.61639 11.3395C6.99173 12.7276 6.95206 13.8282 7.07105 14.5719C6.28774 15.1866 5.72256 15.9204 5.45485 16.7532C5.37552 16.7334 5.28629 16.7235 5.20696 16.7037C5.22679 15.1668 4.83018 14.0563 4.83018 14.0563C4.83018 14.0563 3.45194 12.6384 0.72522 12.6185C2.43066 14.0265 2.83719 15.1866 2.83719 15.1866C2.83719 15.1866 3.10491 16.7632 2.55956 18.0522C4.42365 18.3694 5.49451 19.7179 6.47613 21.0168C6.67443 21.2945 6.88266 21.5523 7.09088 21.82C7.13054 21.8696 7.18012 21.9291 7.21978 21.9786C7.21978 21.9786 7.21978 21.9786 7.2297 21.9886C7.2991 22.0679 7.36851 22.1571 7.43792 22.2364C10.2241 25.449 14.1407 27.68 18.563 28.3245C18.4142 28.2848 18.2655 28.2451 18.1168 28.1956C17.502 27.9774 16.917 27.6998 16.3816 27.3627C15.4396 26.7777 14.6166 26.0142 13.9622 25.1317C12.8814 23.6742 12.237 21.8597 12.237 19.9063C12.237 19.7378 12.237 19.589 12.2469 19.4304C12.2469 19.3709 12.2964 19.3213 12.3559 19.3213C12.5146 19.3114 12.822 19.2916 13.0004 19.2817C13.5854 19.2519 14.2101 19.242 14.8744 19.242C15.0529 19.242 15.2314 19.242 15.4099 19.2519C15.5289 19.2519 15.6379 19.2618 15.747 19.2618C16.3518 19.2817 16.9467 19.3312 17.5318 19.3907C17.6012 19.4006 17.6507 19.47 17.6309 19.5395C17.5417 19.8766 17.4623 20.2137 17.4128 20.5707C18.0672 20.6797 18.8406 20.8384 19.5545 21.0763C19.5545 21.0763 19.5545 21.0664 19.5545 21.0565C19.5842 20.6302 19.6437 20.184 19.7429 19.708C19.7528 19.6584 19.7925 19.6287 19.8321 19.6188C19.8519 19.6188 19.8718 19.6089 19.8817 19.6188C20.8237 19.8072 21.6268 20.1939 21.9243 20.3426C21.9441 20.3525 21.9639 20.3624 21.9738 20.3724C21.9837 20.3823 21.9937 20.3823 22.0036 20.3922C22.0234 20.4021 22.0333 20.4219 22.0333 20.4418C22.0333 20.4517 22.0333 20.4616 22.0432 20.4715C22.0928 22.9999 21.3194 24.6161 20.7344 25.4094C20.7146 25.4292 20.6948 25.449 20.665 25.449C20.6154 25.4589 20.5659 25.449 20.5361 25.3994C20.3279 25.102 20.1296 24.7549 19.9709 24.3385C19.9214 24.1997 19.8619 24.0609 19.8222 23.9022C19.8024 23.8229 19.7726 23.7535 19.7528 23.6742C19.733 23.6048 19.7131 23.5354 19.7032 23.4659C19.5941 22.9702 19.5247 22.405 19.5247 21.7605C18.6522 21.9291 17.9383 22.1175 17.3731 22.286C17.5417 23.9815 18.2952 25.4986 19.0389 26.6289C19.6536 27.5709 20.2684 28.2451 20.546 28.5228C20.5559 28.5327 20.5659 28.5426 20.5659 28.5426C20.5659 28.5426 20.5659 28.5525 20.5758 28.5525C20.5758 28.5525 20.5857 28.5525 20.5857 28.5624C20.6055 28.5823 20.6353 28.5922 20.665 28.6021C20.6848 28.6021 20.7047 28.6021 20.7245 28.6021C20.7542 28.6021 20.784 28.5823 20.8038 28.5624C20.8137 28.5624 20.8137 28.5525 20.8237 28.5525C20.8336 28.5426 20.8336 28.5426 20.8435 28.5327C21.1112 28.2551 21.6962 27.6205 22.301 26.7182C23.1736 25.4193 24.066 23.5948 24.066 21.5721C24.066 21.4135 24.0561 21.2647 24.0461 21.1061C24.0362 21.0169 24.1255 20.9574 24.2048 20.9871C26.1482 21.7208 27.7644 22.5736 28.984 23.3073C29.0336 23.337 29.0534 23.4064 29.0336 23.456C28.7163 24.1699 28.3097 24.8243 27.8338 25.4193C27.0802 26.3513 26.1383 27.1247 25.0674 27.68C24.4725 27.9576 23.8478 28.1757 23.2033 28.3344C23.0645 28.3641 22.9158 28.4038 22.7671 28.4335C24.6113 28.2749 26.1383 27.9179 27.4769 27.442C28.637 27.1049 35.6868 24.7847 37.5509 17.5167C39.0084 17.021 38.9291 16.6739 38.9291 16.6739C38.9291 16.6739 39.8116 14.8892 38.9093 12.3409Z" fill="url(#paint0_linear)"/>
<defs>
<linearGradient id="paint0_linear" x1="20.0164" y1="28.3994" x2="20.0164" y2="0.580239" gradientUnits="userSpaceOnUse">
<stop stop-color="#FFDD00"/>
<stop offset="0.6704" stop-color="#FF5500"/>
<stop offset="1" stop-color="#FF5500"/>
</linearGradient>
</defs>
</svg>
