<svg width="63" height="59" viewBox="0 0 63 59" fill="none" xmlns="http://www.w3.org/2000/svg">
<path d="M57.238 13.7365H56.4541V6.12404C56.4541 2.94696 53.8693 0.362061 50.6921 0.362061H8.90034C4.28859 0.362061 0.486186 3.88952 0.0472482 8.38787C-0.0197861 8.70573 0.00408407 5.87347 0.00408407 49.7417C0.00408407 54.6471 3.99485 58.6379 8.90022 58.6379H57.2378C60.415 58.6379 62.9998 56.0531 62.9998 52.8759V19.4985C62.9999 16.3214 60.4152 13.7365 57.238 13.7365ZM8.90034 4.31993H50.6921C51.687 4.31993 52.4963 5.12929 52.4963 6.12416V13.7366H8.90034C6.25447 13.7366 4.08847 11.6448 3.96776 9.02828C4.08835 6.4116 6.25435 4.31993 8.90034 4.31993ZM57.238 54.6801H8.90034C6.17729 54.6801 3.96195 52.4648 3.96195 49.7417V16.1945C5.37573 17.1415 7.07459 17.6943 8.90034 17.6943H57.238C58.2328 17.6943 59.0422 18.5036 59.0422 19.4985V27.5211H44.1502C39.0785 27.5211 34.9523 31.6472 34.9523 36.7189C34.9523 41.7906 39.0785 45.9167 44.1502 45.9167H59.0422V52.8759C59.0422 53.8708 58.2328 54.6801 57.238 54.6801ZM59.0422 41.9591H44.1502C41.2608 41.9591 38.91 39.6084 38.91 36.719C38.91 33.8296 41.2607 31.479 44.1502 31.479H59.0422V41.9591Z" fill="white"/>
</svg>
